# xmcd CD database file
#
# Track frame offsets:
#	150
#	3330
#	17658
#	37860
#	50625
#	60620
#	76348
#	90928
#	108790
#	127273
#	128750
#	142823
#	162043
#	172438
#	186298
#	197893
#	217818
#	234308
#
# Disc length: 3380 seconds
#
# Revision: 0
# Processed by: cddbd v1.5.1PL0 Copyright (c) Steve Scherf et al.
# Submitted via: CDex 1.51
#
DISCID=e70d3212
DTITLE=Eddie Condon - Town Hall Concerts - disc 1
DYEAR=1900
DGENRE=Jazz
TTITLE0=Intro 1
TTITLE1=Sweet Georgia Brown
TTITLE2=Peg O My Heart
TTITLE3=John O'Hara talks
TTITLE4=Carolina Shout
TTITLE5=Wherever There's Love
TTITLE6=Uncle Sam Blues
TTITLE7=Someone to Watch Over Me
TTITLE8=Impromptu Ensemble 1
TTITLE9=Intro 2
TTITLE10=At the Jazz Band Ball
TTITLE11=I Must Have That Man
TTITLE12=George Frazier talks
TTITLE13=The Sheik of Araby
TTITLE14=Za-Za
TTITLE15=Time on My Hands
TTITLE16=I'll Get By
TTITLE17=Impromptu Ensemble 2
EXTD=
EXTT0=
EXTT1=
EXTT2=
EXTT3=
EXTT4=
EXTT5=
EXTT6=
EXTT7=
EXTT8=
EXTT9=
EXTT10=
EXTT11=
EXTT12=
EXTT13=
EXTT14=
EXTT15=
EXTT16=
EXTT17=
PLAYORDER=
